<svg width="203" height="260" viewBox="0 0 203 260" fill="none" xmlns="http://www.w3.org/2000/svg">
<path d="M99.9155 52.03C104.282 59.1902 101.037 68.5702 92.668 72.9807C84.2989 77.3913 73.9747 75.1622 69.6083 68.002C65.2419 60.8418 65.1735 39.3445 65.2935 29.7749C74.3296 34.3211 95.5491 44.8698 99.9155 52.03Z" fill="#959595"/>
<path d="M103.311 50.5821C98.9581 57.7195 102.448 67.2043 111.106 71.767C119.764 76.3296 130.311 74.2423 134.663 67.1049C139.016 59.9675 138.712 38.3426 138.423 28.714C129.237 33.1516 107.663 43.4446 103.311 50.5821Z" fill="#959595"/>
<path d="M81.3334 51.858C81.3334 63.9724 91.6299 73.7931 104.331 73.7931C117.033 73.7931 127.329 63.9724 127.329 51.858C127.329 39.7436 112.351 12.1721 105.511 0C98.3165 11.9185 81.3334 39.7436 81.3334 51.858Z" fill="#B91E1E"/>
<path d="M200.5 165.862C200.5 216.304 156.456 257.5 101.735 257.5C47.0142 257.5 2.9707 216.304 2.9707 165.862C2.9707 115.421 47.0142 74.2241 101.735 74.2241C156.456 74.2241 200.5 115.421 200.5 165.862Z" stroke="#959595" stroke-width="5"/>
</svg>
