<svg width="624" height="756" viewBox="0 0 624 756" fill="none" xmlns="http://www.w3.org/2000/svg">
<path d="M585.001 377.642C585.001 480.87 554.115 574.108 504.448 641.409C454.78 708.712 386.608 749.784 311.806 749.784C237.005 749.784 168.833 708.712 119.165 641.409C69.4973 574.108 38.6113 480.87 38.6113 377.642C38.6113 274.413 69.4973 181.176 119.165 113.875C168.833 46.5719 237.005 5.5 311.806 5.5C386.608 5.5 454.78 46.5719 504.448 113.875C554.115 181.176 585.001 274.413 585.001 377.642Z" stroke="#B2B2B2" stroke-width="11"/>
<path d="M182.503 23.1695C182.503 46.7096 222.053 23.1695 222.053 23.1695L196.76 42.5584L150.31 80.4547L106.62 129.808L77.6473 180.924L54.6524 248.345L39.9358 310.477L36.7169 410.065L54.6524 515.823L87.765 602.191L128.695 661.239L151.23 688.119C151.23 688.119 38.9753 660.714 72.1283 654.188C91.5097 650.374 112.599 666.086 122.257 661.239C131.914 656.392 20.2133 593.093 54.6524 602.191C72.0078 606.776 83.6256 623.783 95.1229 623.342C106.62 622.902 10.7053 544.594 39.9358 560.329C54.0707 567.937 49.1337 574.87 72.1283 575.311C95.1229 575.752 2.68438 518.907 6.82342 500.84C10.9625 482.773 50.0538 547.934 58.7914 545.346C67.5291 542.759 -3.29379 449.724 10.0428 451.487C23.3793 453.249 43.1555 494.23 43.1548 484.977C43.1518 447.804 -19.2379 369.375 10.0428 393.761C20.8615 402.771 28.4389 430.335 32.5775 421.522C36.7161 412.709 -21.2245 325.487 10.0428 339.56C20.4286 344.235 28.4386 369.084 32.5775 357.627C36.7164 346.17 -23.0876 262.394 10.0428 273.903C24.6399 278.973 30.2784 308.714 39.9358 299.02C49.5933 289.326 3.60133 192.563 32.5775 212.211C44.4235 220.243 43.1548 250.107 54.6524 240.853C66.15 231.6 35.3366 82.658 54.6524 144.35C73.9682 206.042 72.1289 112.182 82.2463 144.35C92.3636 176.518 83.3849 76.5716 98.3422 95.437C105.879 104.944 101.562 117.91 106.62 118.351C111.679 118.792 133.369 32.5084 133.369 53.3195C133.369 72.7083 147.811 72.8859 157.668 66.3538C174.196 55.4008 182.503 3.91424 182.503 23.1695Z" fill="#B2B2B2"/>
<path d="M401.947 23.1695C401.947 23.1695 402.114 23.3008 402.427 23.5376L427.24 42.5584L473.69 80.4547L517.38 129.808L546.353 180.924L569.348 248.344L584.064 310.477L587.283 410.065L569.348 515.822L536.235 602.191L495.305 661.239L469.551 686.982C469.551 686.982 585.025 660.714 551.872 654.188C532.49 650.373 511.401 666.086 501.743 661.239C492.086 656.392 603.787 593.093 569.348 602.191C551.992 606.776 540.374 623.783 528.877 623.342C517.38 622.902 613.295 544.594 584.064 560.329C569.929 567.937 574.866 574.87 551.872 575.311C528.877 575.752 621.316 518.907 617.177 500.84C613.038 482.773 573.946 547.934 565.209 545.346C556.471 542.759 627.294 449.724 613.957 451.487C600.621 453.249 580.845 494.23 580.845 484.977C580.848 447.804 643.238 369.375 613.957 393.761C603.139 402.771 595.561 430.335 591.422 421.522C587.284 412.709 645.225 325.487 613.957 339.56C603.571 344.235 595.561 369.084 591.422 357.627C587.284 346.17 647.088 262.394 613.957 273.903C599.36 278.973 593.722 308.714 584.064 299.02C574.407 289.325 620.399 192.563 591.422 212.211C579.577 220.243 580.845 250.107 569.348 240.853C557.85 231.6 588.663 82.658 569.348 144.35C550.032 206.042 551.871 112.182 541.754 144.35C531.636 176.518 540.615 76.5716 525.658 95.437C518.121 104.944 522.438 117.91 517.38 118.351C512.321 118.792 494.845 29.4239 494.845 50.235C494.845 69.6238 476.189 72.8859 466.332 66.3538C449.804 55.4008 441.497 3.91424 441.497 23.1695C441.497 52.1723 406.925 26.9426 402.427 23.5376L401.947 23.1695Z" fill="#B2B2B2"/>
<path d="M88.3012 248.53C83.7023 252.936 88.3012 174.94 88.3012 174.94L84.6221 173.178L119.114 111.486L160.964 66.0983L211.552 28.2019L283.296 7.05045C283.296 7.05045 312.239 5.4785 330.665 7.05045C352.171 8.88522 384.932 17.1855 384.932 17.1855L402.868 29.5239L420.804 35.6931C420.804 35.6931 438.556 48.3012 450.237 55.9632C465.036 65.6709 488.868 79.7586 488.868 79.7586L521.06 138.807C521.06 138.807 536.372 162.371 540.376 179.347C548.506 213.814 533.018 224.734 522.9 256.902C512.782 289.07 539.679 106.342 513.242 152.467C494.463 185.232 519.812 208.542 497.606 239.276C468.712 279.266 516.461 74.1859 488.868 115.011C470.555 142.106 503.989 153.071 479.21 174.94C446.954 203.409 500.189 112.032 469.092 82.4026C430.313 45.4526 493.943 169.44 450.237 200.939C399.806 237.285 469.403 14.9653 442.419 69.6236C430.123 94.5287 447.018 100.91 426.322 115.011C399.845 133.052 440.435 63.1065 417.125 41.4216C386.18 12.634 434.775 127.772 393.21 138.807C346.893 151.102 419.223 -0.335124 382.633 29.5239C359.97 48.0177 383.834 105.875 359.178 89.8937C343.542 79.7586 382.659 42.4499 359.178 18.9482C328.306 -11.9514 371.29 148.847 332.964 126.909C297.552 106.639 344.612 -17.3419 321.927 18.9482C311.316 35.9233 323.499 43.2556 307.67 55.9632C290.654 69.6236 315.181 25.1592 297.093 15.4229C272.178 2.01275 301.832 83.0806 274.558 74.9114C250.348 67.6602 291.269 29.658 269.499 17.1855C242.322 1.61517 277.184 100.26 247.424 89.8937C220.832 80.6308 265.791 44.0382 242.825 28.2019C213.51 7.9874 243.058 144.33 226.269 113.689C216.611 96.0629 224.345 73.0586 213.852 46.7094C195.234 -0.0396533 240.513 206.067 213.852 163.043C196.376 134.841 217.068 101.791 195.456 66.0983C165.769 17.069 219.156 237.896 174.301 200.939C135.155 168.685 191.509 43.5247 159.585 82.4026C140.19 106.022 162.804 176.262 145.788 147.62C136.928 132.705 136.783 88.4629 133.371 120.299C129.958 152.135 148.118 229.337 126.012 205.346C112.059 190.202 124.575 172.423 114.515 154.67C91.365 113.814 122.609 215.657 88.3012 248.53Z" fill="#B2B2B2"/>
<path d="M86.4604 506.611C81.8615 502.204 86.4604 580.2 86.4604 580.2L82.7812 581.963L117.273 643.655L159.123 689.042L209.712 726.938L281.455 748.09C281.455 748.09 310.398 749.662 328.824 748.09C350.33 746.255 383.091 737.955 383.091 737.955L401.027 725.616L418.963 719.447C418.963 719.447 436.716 706.839 448.396 699.177C463.195 689.469 487.027 675.382 487.027 675.382L519.22 616.334C519.22 616.334 534.531 592.769 538.535 575.794C546.665 541.326 531.177 530.406 521.059 498.238C510.941 466.07 537.838 648.799 511.401 602.674C492.622 569.908 517.971 546.599 495.765 515.864C466.871 475.874 514.62 680.954 487.027 640.129C468.714 613.035 502.148 602.07 477.369 580.2C445.113 551.731 498.348 643.108 467.252 672.738C428.473 709.688 492.102 585.701 448.396 554.201C397.965 517.855 467.562 740.175 440.578 685.517C428.282 660.612 445.177 654.23 424.482 640.129C398.004 622.089 438.594 692.034 415.284 713.719C384.339 742.506 432.934 627.368 391.369 616.334C345.052 604.038 417.382 755.476 380.792 725.616C358.129 707.123 381.994 649.265 357.337 665.247C341.701 675.382 380.818 712.691 357.337 736.192C326.465 767.092 369.449 606.294 331.123 628.232C295.712 648.502 342.771 772.482 320.086 736.192C309.475 719.217 321.658 711.885 305.829 699.177C288.813 685.517 313.34 729.981 295.252 739.717C270.338 753.128 299.992 672.06 272.717 680.229C248.507 687.48 289.428 725.482 267.658 737.955C240.481 753.525 275.343 654.88 245.583 665.247C218.991 674.51 263.95 711.102 240.984 726.938C211.669 747.153 241.217 610.811 224.428 641.451C214.771 659.077 222.505 682.082 212.011 708.431C193.394 755.18 238.672 549.073 212.011 592.098C194.535 620.3 215.228 653.349 193.615 689.042C163.928 738.071 217.315 517.244 172.46 554.201C133.314 586.455 189.669 711.616 157.744 672.738C138.349 649.119 160.963 578.878 143.947 607.521C135.087 622.435 134.942 666.677 131.53 634.841C128.118 603.005 146.277 525.803 124.172 549.795C110.218 564.939 122.734 582.717 112.674 600.47C89.5242 641.326 120.768 539.483 86.4604 506.611Z" fill="#B2B2B2"/>
</svg>
