<svg width="203" height="260" viewBox="0 0 203 260" fill="none" xmlns="http://www.w3.org/2000/svg">
<path d="M95.7358 52.7197C100.102 59.8799 96.8574 69.2599 88.4883 73.6704C80.1192 78.081 69.795 75.8519 65.4286 68.6917C61.0622 61.5315 60.9938 40.0342 61.1138 30.4646C70.15 35.0108 91.3694 45.5595 95.7358 52.7197Z" fill="#B91E1E"/>
<path d="M99.1309 51.2718C94.7784 58.4092 98.2685 67.894 106.926 72.4567C115.584 77.0193 126.131 74.932 130.483 67.7946C134.836 60.6572 134.532 39.0323 134.243 29.4037C125.057 33.8413 103.483 44.1343 99.1309 51.2718Z" fill="#B91E1E"/>
<path d="M77.1538 52.5477C77.1538 64.6621 87.4502 74.4828 100.152 74.4828C112.853 74.4828 123.149 64.6621 123.149 52.5477C123.149 40.4333 108.171 12.8618 101.331 0.689697C94.1368 12.6082 77.1538 40.4333 77.1538 52.5477Z" fill="#959595"/>
<path d="M200.029 165.862C200.029 216.304 155.986 257.5 101.265 257.5C46.5435 257.5 2.5 216.304 2.5 165.862C2.5 115.421 46.5435 74.2241 101.265 74.2241C155.986 74.2241 200.029 115.421 200.029 165.862Z" stroke="#959595" stroke-width="5"/>
</svg>
