<svg width="418" height="421" viewBox="0 0 418 421" fill="none" xmlns="http://www.w3.org/2000/svg">
<path d="M286.496 82.1448C293.137 84.7003 297.61 86.2849 304.538 84.6495C309.917 83.3796 312.781 81.405 316.866 77.6611C321.017 73.856 322.596 70.8398 325.011 65.742C328.975 57.3741 330.447 51.6103 329.331 42.417C328.023 31.6441 324.163 25.4615 316.522 17.8016C309.54 10.8012 304.007 7.891 294.434 5.49134C286.051 3.39012 279 -0.367266 272.307 5.13828C270.056 6.99007 269.304 8.58271 267.704 11.0242C260.999 21.2548 260.241 29.3653 260.755 41.5966C261.198 52.1355 261.938 58.9792 267.961 67.6093C273.234 75.1639 277.92 78.8445 286.496 82.1448Z" fill="#CC0000" stroke="black"/>
<path d="M327.85 112.844C330.981 119.233 333.183 123.437 339.374 126.949C344.182 129.676 347.625 130.177 353.165 130.209C358.797 130.243 362.005 129.105 367.242 127.01C375.84 123.57 380.838 120.345 386.272 112.846C392.639 104.058 394.013 96.9004 393.62 86.0884C393.261 76.2072 391.184 70.3109 385.797 62.0415C381.08 54.8005 378.465 47.2505 369.815 46.7358C366.905 46.5627 365.271 47.2191 362.437 47.9209C350.564 50.8617 344.493 56.2931 336.552 65.6104C329.71 73.6384 325.598 79.1592 324.145 89.5824C322.874 98.7068 323.807 104.592 327.85 112.844Z" fill="#CC0000" stroke="black"/>
<path d="M166.496 99.1448C173.137 101.7 177.61 103.285 184.538 101.649C189.917 100.38 192.781 98.405 196.866 94.6611C201.017 90.856 202.596 87.8398 205.011 82.742C208.975 74.3741 210.447 68.6103 209.331 59.417C208.023 48.6441 204.163 42.4615 196.522 34.8016C189.54 27.8012 184.007 24.891 174.434 22.4913C166.051 20.3901 159 16.6327 152.307 22.1383C150.056 23.9901 149.304 25.5827 147.704 28.0242C140.999 38.2548 140.241 46.3653 140.755 58.5966C141.198 69.1355 141.938 75.9792 147.961 84.6093C153.234 92.1639 157.92 95.8445 166.496 99.1448Z" fill="#CC0000" stroke="black"/>
<path d="M207.85 129.844C210.981 136.233 213.183 140.437 219.374 143.949C224.182 146.676 227.625 147.177 233.165 147.209C238.797 147.243 242.005 146.105 247.242 144.01C255.84 140.57 260.838 137.345 266.272 129.846C272.639 121.058 274.013 113.9 273.62 103.088C273.261 93.2072 271.184 87.3109 265.797 79.0415C261.08 71.8005 258.465 64.2505 249.815 63.7358C246.905 63.5627 245.271 64.2191 242.437 64.9209C230.564 67.8617 224.493 73.2931 216.552 82.6104C209.71 90.6384 205.598 96.1592 204.145 106.582C202.874 115.707 203.807 121.592 207.85 129.844Z" fill="#B2B2B2" stroke="black"/>
<path d="M32.4961 99.1448C39.1365 101.7 43.6099 103.285 50.5376 101.649C55.917 100.38 58.7813 98.405 62.8659 94.6611C67.0174 90.856 68.5957 87.8398 71.0109 82.742C74.9755 74.3741 76.4469 68.6103 75.3309 59.417C74.0231 48.6441 70.1631 42.4615 62.5224 34.8016C55.5396 27.8012 50.0065 24.891 40.4336 22.4913C32.0511 20.3901 24.9998 16.6327 18.3073 22.1383C16.0563 23.9901 15.3043 25.5827 13.7041 28.0242C6.99872 38.2548 6.2414 46.3653 6.75547 58.5966C7.1984 69.1355 7.93825 75.9792 13.9614 84.6093C19.2339 92.1639 23.9204 95.8445 32.4961 99.1448Z" fill="#CC0000" stroke="black"/>
<path d="M73.8499 129.844C76.9806 136.233 79.1828 140.437 85.3741 143.949C90.1817 146.676 93.6246 147.177 99.1653 147.209C104.797 147.243 108.005 146.105 113.242 144.01C121.84 140.57 126.838 137.345 132.272 129.846C138.639 121.058 140.013 113.9 139.62 103.088C139.261 93.2072 137.184 87.3109 131.797 79.0415C127.08 71.8005 124.465 64.2505 115.815 63.7358C112.905 63.5627 111.271 64.2191 108.437 64.9209C96.5636 67.8617 90.4929 73.2931 82.552 82.6104C75.7098 90.6384 71.5983 96.1592 70.1455 106.582C68.8737 115.707 69.8067 121.592 73.8499 129.844Z" fill="#B2B2B2" stroke="black"/>
<path d="M291.496 212.145C298.137 214.7 302.61 216.285 309.538 214.649C314.917 213.38 317.781 211.405 321.866 207.661C326.017 203.856 327.596 200.84 330.011 195.742C333.975 187.374 335.447 181.61 334.331 172.417C333.023 161.644 329.163 155.462 321.522 147.802C314.54 140.801 309.007 137.891 299.434 135.491C291.051 133.39 284 129.633 277.307 135.138C275.056 136.99 274.304 138.583 272.704 141.024C265.999 151.255 265.241 159.365 265.755 171.597C266.198 182.136 266.938 188.979 272.961 197.609C278.234 205.164 282.92 208.844 291.496 212.145Z" fill="#CC0000" stroke="black"/>
<path d="M332.85 242.844C335.981 249.233 338.183 253.437 344.374 256.949C349.182 259.676 352.625 260.177 358.165 260.209C363.797 260.243 367.005 259.105 372.242 257.01C380.84 253.57 385.838 250.345 391.272 242.846C397.639 234.058 399.013 226.9 398.62 216.088C398.261 206.207 396.184 200.311 390.797 192.041C386.08 184.801 383.465 177.251 374.815 176.736C371.905 176.563 370.271 177.219 367.437 177.921C355.564 180.862 349.493 186.293 341.552 195.61C334.71 203.638 330.598 209.159 329.145 219.582C327.874 228.707 328.807 234.592 332.85 242.844Z" fill="#B2B2B2" stroke="black"/>
<path d="M171.496 229.145C178.137 231.7 182.61 233.285 189.538 231.649C194.917 230.38 197.781 228.405 201.866 224.661C206.017 220.856 207.596 217.84 210.011 212.742C213.975 204.374 215.447 198.61 214.331 189.417C213.023 178.644 209.163 172.462 201.522 164.802C194.54 157.801 189.007 154.891 179.434 152.491C171.051 150.39 164 146.633 157.307 152.138C155.056 153.99 154.304 155.583 152.704 158.024C145.999 168.255 145.241 176.365 145.755 188.597C146.198 199.136 146.938 205.979 152.961 214.609C158.234 222.164 162.92 225.844 171.496 229.145Z" fill="#CC0000" stroke="black"/>
<path d="M212.85 259.844C215.981 266.233 218.183 270.437 224.374 273.949C229.182 276.676 232.625 277.177 238.165 277.209C243.797 277.243 247.005 276.105 252.242 274.01C260.84 270.57 265.838 267.345 271.272 259.846C277.639 251.058 279.013 243.9 278.62 233.088C278.261 223.207 276.184 217.311 270.797 209.041C266.08 201.801 263.465 194.251 254.815 193.736C251.905 193.563 250.271 194.219 247.437 194.921C235.564 197.862 229.493 203.293 221.552 212.61C214.71 220.638 210.598 226.159 209.145 236.582C207.874 245.707 208.807 251.592 212.85 259.844Z" fill="#CC0000" stroke="black"/>
<path d="M37.4961 229.145C44.1365 231.7 48.6099 233.285 55.5376 231.649C60.917 230.38 63.7813 228.405 67.8659 224.661C72.0174 220.856 73.5957 217.84 76.0109 212.742C79.9755 204.374 81.4469 198.61 80.3309 189.417C79.0231 178.644 75.1631 172.462 67.5224 164.802C60.5396 157.801 55.0065 154.891 45.4336 152.491C37.0511 150.39 29.9998 146.633 23.3073 152.138C21.0563 153.99 20.3043 155.583 18.7041 158.024C11.9987 168.255 11.2414 176.365 11.7555 188.597C12.1984 199.136 12.9383 205.979 18.9614 214.609C24.2339 222.164 28.9204 225.844 37.4961 229.145Z" fill="#CC0000" stroke="black"/>
<path d="M78.8499 259.844C81.9806 266.233 84.1828 270.437 90.3741 273.949C95.1817 276.676 98.6246 277.177 104.165 277.209C109.797 277.243 113.005 276.105 118.242 274.01C126.84 270.57 131.838 267.345 137.272 259.846C143.639 251.058 145.013 243.9 144.62 233.088C144.261 223.207 142.184 217.311 136.797 209.041C132.08 201.801 129.465 194.251 120.815 193.736C117.905 193.563 116.271 194.219 113.437 194.921C101.564 197.862 95.4929 203.293 87.552 212.61C80.7098 220.638 76.5983 226.159 75.1455 236.582C73.8737 245.707 74.8067 251.592 78.8499 259.844Z" fill="#B2B2B2" stroke="black"/>
<path d="M291.496 342.145C298.137 344.7 302.61 346.285 309.538 344.649C314.917 343.38 317.781 341.405 321.866 337.661C326.017 333.856 327.596 330.84 330.011 325.742C333.975 317.374 335.447 311.61 334.331 302.417C333.023 291.644 329.163 285.462 321.522 277.802C314.54 270.801 309.007 267.891 299.434 265.491C291.051 263.39 284 259.633 277.307 265.138C275.056 266.99 274.304 268.583 272.704 271.024C265.999 281.255 265.241 289.365 265.755 301.597C266.198 312.136 266.938 318.979 272.961 327.609C278.234 335.164 282.92 338.844 291.496 342.145Z" fill="#CC0000" stroke="black"/>
<path d="M332.85 372.844C335.981 379.233 338.183 383.437 344.374 386.949C349.182 389.676 352.625 390.177 358.165 390.209C363.797 390.243 367.005 389.105 372.242 387.01C380.84 383.57 385.838 380.345 391.272 372.846C397.639 364.058 399.013 356.9 398.62 346.088C398.261 336.207 396.184 330.311 390.797 322.041C386.08 314.801 383.465 307.251 374.815 306.736C371.905 306.563 370.271 307.219 367.437 307.921C355.564 310.862 349.493 316.293 341.552 325.61C334.71 333.638 330.598 339.159 329.145 349.582C327.874 358.707 328.807 364.592 332.85 372.844Z" fill="#B2B2B2" stroke="black"/>
<path d="M171.496 359.145C178.137 361.7 182.61 363.285 189.538 361.649C194.917 360.38 197.781 358.405 201.866 354.661C206.017 350.856 207.596 347.84 210.011 342.742C213.975 334.374 215.447 328.61 214.331 319.417C213.023 308.644 209.163 302.462 201.522 294.802C194.54 287.801 189.007 284.891 179.434 282.491C171.051 280.39 164 276.633 157.307 282.138C155.056 283.99 154.304 285.583 152.704 288.024C145.999 298.255 145.241 306.365 145.755 318.597C146.198 329.136 146.938 335.979 152.961 344.609C158.234 352.164 162.92 355.844 171.496 359.145Z" fill="#B2B2B2" stroke="black"/>
<path d="M212.85 389.844C215.981 396.233 218.183 400.437 224.374 403.949C229.182 406.676 232.625 407.177 238.165 407.209C243.797 407.243 247.005 406.105 252.242 404.01C260.84 400.57 265.838 397.345 271.272 389.846C277.639 381.058 279.013 373.9 278.62 363.088C278.261 353.207 276.184 347.311 270.797 339.041C266.08 331.801 263.465 324.251 254.815 323.736C251.905 323.563 250.271 324.219 247.437 324.921C235.564 327.862 229.493 333.293 221.552 342.61C214.71 350.638 210.598 356.159 209.145 366.582C207.874 375.707 208.807 381.592 212.85 389.844Z" fill="#CC0000" stroke="black"/>
<path d="M37.4961 359.145C44.1365 361.7 48.6099 363.285 55.5376 361.649C60.917 360.38 63.7813 358.405 67.8659 354.661C72.0174 350.856 73.5957 347.84 76.0109 342.742C79.9755 334.374 81.4469 328.61 80.3309 319.417C79.0231 308.644 75.1631 302.462 67.5224 294.802C60.5396 287.801 55.0065 284.891 45.4336 282.491C37.0511 280.39 29.9998 276.633 23.3073 282.138C21.0563 283.99 20.3043 285.583 18.7041 288.024C11.9987 298.255 11.2414 306.365 11.7555 318.597C12.1984 329.136 12.9383 335.979 18.9614 344.609C24.2339 352.164 28.9204 355.844 37.4961 359.145Z" fill="#B2B2B2" stroke="black"/>
<path d="M78.8499 389.844C81.9806 396.233 84.1828 400.437 90.3741 403.949C95.1817 406.676 98.6246 407.177 104.165 407.209C109.797 407.243 113.005 406.105 118.242 404.01C126.84 400.57 131.838 397.345 137.272 389.846C143.639 381.058 145.013 373.9 144.62 363.088C144.261 353.207 142.184 347.311 136.797 339.041C132.08 331.801 129.465 324.251 120.815 323.736C117.905 323.563 116.271 324.219 113.437 324.921C101.564 327.862 95.4929 333.293 87.552 342.61C80.7098 350.638 76.5983 356.159 75.1455 366.582C73.8737 375.707 74.8067 381.592 78.8499 389.844Z" fill="#CC0000" stroke="black"/>
</svg>
