<svg width="178" height="286" viewBox="0 0 178 286" fill="none" xmlns="http://www.w3.org/2000/svg">
<path d="M58.4961 87.1448C65.1365 89.7003 69.6099 91.2849 76.5376 89.6495C81.917 88.3796 84.7813 86.405 88.8659 82.6611C93.0174 78.856 94.5957 75.8398 97.0109 70.742C100.975 62.3741 102.447 56.6103 101.331 47.417C100.023 36.6441 96.1631 30.4615 88.5224 22.8016C81.5396 15.8012 76.0065 12.891 66.4336 10.4913C58.0511 8.39012 50.9998 4.63273 44.3073 10.1383C42.0563 11.9901 41.3043 13.5827 39.7041 16.0242C32.9987 26.2548 32.2414 34.3653 32.7555 46.5966C33.1984 57.1355 33.9383 63.9792 39.9614 72.6093C45.2339 80.1639 49.9204 83.8445 58.4961 87.1448Z" fill="#CC0000" stroke="black"/>
<path d="M89 36V286" stroke="#646464" stroke-width="12"/>
<path d="M84.4509 53.4296C84.6688 60.5415 84.6863 65.2872 80.8538 71.2855C77.8779 75.9431 75.0677 77.9941 70.1845 80.6123C65.2214 83.2734 61.8531 83.7665 56.2436 84.3617C47.0358 85.3387 41.1095 84.8231 32.8013 80.7322C23.0654 75.9384 18.5055 70.2524 13.8004 60.5099C9.50029 51.6062 8.58176 45.4224 9.47989 35.5942C10.2663 26.9882 9.04979 19.0915 16.4574 14.5939C18.949 13.0812 20.7006 12.8977 23.5337 12.194C35.4053 9.24554 43.3104 11.2105 54.685 15.7371C64.4857 19.6373 70.7005 22.5969 76.8558 31.1331C82.244 38.6057 84.1694 44.2451 84.4509 53.4296Z" fill="#850000" stroke="black"/>
<path d="M92.9954 52.4296C92.7775 59.5415 92.7599 64.2872 96.5925 70.2855C99.5684 74.9431 102.379 76.9941 107.262 79.6123C112.225 82.2734 115.593 82.7665 121.203 83.3617C130.411 84.3387 136.337 83.8231 144.645 79.7322C154.381 74.9384 158.941 69.2524 163.646 59.5099C167.946 50.6062 168.865 44.4224 167.966 34.5942C167.18 25.9882 168.397 18.0915 160.989 13.5939C158.497 12.0812 156.746 11.8977 153.913 11.194C142.041 8.24554 134.136 10.2105 122.761 14.7371C112.961 18.6373 106.746 21.5969 100.591 30.1331C95.2023 37.6057 93.2768 43.2451 92.9954 52.4296Z" fill="#850000" stroke="black"/>
<path d="M64.4961 82.1448C71.1365 84.7003 75.6099 86.2849 82.5376 84.6495C87.917 83.3796 90.7813 81.405 94.8659 77.6611C99.0174 73.856 100.596 70.8398 103.011 65.742C106.975 57.3741 108.447 51.6103 107.331 42.417C106.023 31.6441 102.163 25.4616 94.5224 17.8016C87.5396 10.8012 82.0065 7.89101 72.4336 5.49135C64.0511 3.39013 56.9998 -0.367259 50.3073 5.13829C48.0563 6.99007 47.3043 8.58272 45.7041 11.0242C38.9987 21.2548 38.2414 29.3653 38.7555 41.5966C39.1984 52.1355 39.9383 58.9792 45.9613 67.6093C51.2339 75.1639 55.9204 78.8445 64.4961 82.1448Z" fill="#850000" stroke="black"/>
<path d="M75.1569 113.285C82.0484 111.515 86.6115 110.211 91.3061 104.86C94.9515 100.706 96.1394 97.4356 97.2951 92.0167C98.4698 86.5091 98.006 83.1366 97.0165 77.5831C95.3923 68.4671 93.2476 62.9185 87.0061 56.0771C79.6921 48.06 72.9617 45.2628 62.2946 43.4549C52.546 41.8027 46.3508 42.6415 37.1609 46.2395C29.1138 49.3899 21.1905 50.4192 18.9322 58.7859C18.1727 61.6 18.4839 63.3335 18.5966 66.2505C19.0685 78.4737 23.156 85.5196 30.6694 95.185C37.1431 103.513 41.7154 108.659 51.6275 112.195C60.3044 115.291 66.2569 115.57 75.1569 113.285Z" fill="#850000" stroke="black"/>
<path d="M68.7048 65.5852C70.5292 72.4625 71.8692 77.0152 77.2567 81.6674C81.44 85.2798 84.7192 86.4418 90.1471 87.5546C95.6639 88.6857 99.0325 88.1953 104.578 87.1619C113.681 85.4656 119.212 83.2772 126.004 76.9818C133.963 69.6046 136.707 62.8523 138.431 52.1712C140.006 42.4098 139.118 36.2215 135.447 27.0603C132.233 19.0384 131.142 11.1235 122.757 8.93143C119.937 8.19415 118.206 8.5191 115.29 8.6548C103.071 9.22342 96.0578 13.3665 86.4521 20.956C78.1756 27.4954 73.0663 32.1082 69.6084 42.048C66.5815 50.7491 66.3487 56.7036 68.7048 65.5852Z" fill="#850000" stroke="black"/>
<path d="M75.9954 86.4296C75.7775 93.5415 75.7599 98.2872 79.5925 104.285C82.5684 108.943 85.3786 110.994 90.2618 113.612C95.2249 116.273 98.5932 116.767 104.203 117.362C113.411 118.339 119.337 117.823 127.645 113.732C137.381 108.938 141.941 103.252 146.646 93.5099C150.946 84.6062 151.865 78.4224 150.966 68.5942C150.18 59.9882 151.397 52.0915 143.989 47.5939C141.497 46.0812 139.746 45.8977 136.913 45.194C125.041 42.2455 117.136 44.2105 105.761 48.7371C95.9606 52.6373 89.7458 55.5969 83.5905 64.1331C78.2023 71.6057 76.2768 77.2451 75.9954 86.4296Z" fill="#850000" stroke="black"/>
<path d="M91 199L158.5 154.5M91 199C91 199 92.9003 164.771 109 157.5C121.559 151.828 158.5 154.5 158.5 154.5M91 199C91 199 116.989 207.338 129.5 199C142.414 190.394 158.5 154.5 158.5 154.5" stroke="#850000" stroke-width="4"/>
</svg>
